<?xml version="1.0" encoding="UTF-8" standalone="no"?>
<!DOCTYPE svg PUBLIC "-//W3C//DTD SVG 1.1//EN" "http://www.w3.org/Graphics/SVG/1.1/DTD/svg11.dtd">
<svg width="100%" height="100%" viewBox="0 0 1509 1554" version="1.1" xmlns="http://www.w3.org/2000/svg" xmlns:xlink="http://www.w3.org/1999/xlink" xml:space="preserve" xmlns:serif="http://www.serif.com/" style="fill-rule:evenodd;clip-rule:evenodd;stroke-linecap:round;">
    <g id="Vetor--Brigadeiro" serif:id="Vetor -Brigadeiro" transform="matrix(3.779528,0,0,3.779528,0.000019,0)">
        <g id="path1" transform="matrix(0.96537,-0.260884,0.260884,0.96537,43.885729,40.709155)">
            <path d="M66.235,260.483C56.213,258.335 47.162,255.725 39.103,250.829L8.716,188.614" style="fill:none;fill-rule:nonzero;stroke:rgb(254,0,182);stroke-opacity:0.99;stroke-width:2.24px;"/>
        </g>
        <g id="path2" transform="matrix(0.96537,-0.260884,0.260884,0.96537,43.885729,40.709155)">
            <path d="M65.742,208.229C63.854,210.427 61.475,209.696 56.004,205.124C51.353,203.771 48.704,211.866 40.802,200.595C32.884,205.005 30.54,201.763 28.93,196.712C25.73,194.295 17.52,201.13 16.209,189.333C12.976,186.993 4.843,192.258 6.502,178.73L1.003,173.433C1.128,168.562 2.871,167.854 5.782,170.147L11.905,176.27L11.905,182.692C23.784,183.794 19.886,188.589 22.119,191.328C28.271,189.217 33.828,190.679 35.202,197.327C39.284,196.207 42.751,192.322 49.09,201.359C59.423,195.336 59.566,202.081 63.525,203.494L66.563,202.106" style="fill:none;fill-rule:nonzero;stroke:rgb(254,0,182);stroke-opacity:0.99;stroke-width:2.87px;stroke-linejoin:round;"/>
        </g>
        <g id="path3" transform="matrix(0.96537,-0.260884,0.260884,0.96537,43.885729,40.709155)">
            <path d="M27.84,205.615L43.575,242.152" style="fill:none;fill-rule:nonzero;stroke:rgb(254,0,182);stroke-opacity:0.99;stroke-width:2.87px;stroke-linejoin:round;"/>
        </g>
        <g id="path4" transform="matrix(0.96537,-0.260884,0.260884,0.96537,43.885729,40.709155)">
            <path d="M47.165,211.634L60.682,249.016" style="fill:none;fill-rule:nonzero;stroke:rgb(254,0,182);stroke-opacity:0.99;stroke-width:2.87px;stroke-linejoin:round;"/>
        </g>
        <g id="path6" transform="matrix(0.96537,-0.260884,0.260884,0.96537,43.885729,40.709155)">
            <ellipse cx="77.465" cy="159.694" rx="14.187" ry="3.136" style="fill:none;stroke:rgb(254,0,182);stroke-opacity:0.99;stroke-width:2.87px;stroke-linecap:square;stroke-linejoin:round;"/>
        </g>
        <g id="path7" transform="matrix(0.96537,-0.260884,0.260884,0.96537,43.885729,40.709155)">
            <ellipse cx="88.217" cy="142.818" rx="6.123" ry="3.883" style="fill:none;stroke:rgb(254,0,182);stroke-opacity:0.99;stroke-width:2.87px;stroke-linecap:square;stroke-linejoin:round;"/>
        </g>
        <g id="path8" transform="matrix(0.96537,-0.260884,0.260884,0.96537,43.885729,40.709155)">
            <ellipse cx="112.858" cy="124.45" rx="5.376" ry="3.136" style="fill:none;stroke:rgb(254,0,182);stroke-opacity:0.99;stroke-width:2.87px;stroke-linecap:square;stroke-linejoin:round;"/>
        </g>
        <g id="path9" transform="matrix(-0.960636,0.277809,-0.277809,-0.960636,43.885729,40.709155)">
            <ellipse cx="-89.564" cy="-85.64" rx="10.304" ry="2.389" style="fill:none;stroke:rgb(254,0,182);stroke-opacity:0.99;stroke-width:2.87px;stroke-linecap:square;stroke-linejoin:round;"/>
        </g>
        <g id="path13" transform="matrix(0.900116,-0.43565,0.43565,0.900116,43.885729,40.709155)">
            <ellipse cx="56.444" cy="135.347" rx="17.025" ry="4.182" style="fill:none;stroke:rgb(254,0,182);stroke-opacity:0.99;stroke-width:2.87px;stroke-linecap:square;stroke-linejoin:round;"/>
        </g>
        <g id="path11" transform="matrix(0.453734,-0.891137,0.981991,-0.188929,43.885729,40.709155)">
            <ellipse cx="-126.084" cy="123.777" rx="9.265" ry="5.6" style="fill:none;stroke:rgb(254,0,182);stroke-opacity:0.99;stroke-width:2.88px;stroke-linecap:square;stroke-linejoin:round;"/>
        </g>
        <g id="path12" transform="matrix(0.998064,0.0622,0.002555,0.999997,43.885729,40.709155)">
            <ellipse cx="51.63" cy="116.029" rx="3.116" ry="8.703" style="fill:white;fill-opacity:0.01;stroke:rgb(254,0,182);stroke-opacity:0.99;stroke-width:2.88px;stroke-linecap:square;stroke-linejoin:round;"/>
        </g>
        <g id="path15" transform="matrix(0.897628,-0.440753,0.438307,0.898825,43.885729,40.709155)">
            <ellipse cx="114.243" cy="176.429" rx="11.056" ry="3.81" style="fill:none;stroke:rgb(254,0,182);stroke-opacity:0.99;stroke-width:2.87px;stroke-linejoin:round;"/>
        </g>
        <g id="path17" transform="matrix(0.96537,-0.260884,0.260884,0.96537,43.885729,40.709155)">
            <ellipse cx="90.777" cy="95.159" rx="15.101" ry="4.118" style="fill:none;stroke:rgb(254,0,182);stroke-opacity:0.99;stroke-width:2.87px;stroke-linejoin:round;"/>
        </g>
        <g id="path18" transform="matrix(0.999908,-0.0136,0.039293,0.999228,43.885729,40.709155)">
            <ellipse cx="76.734" cy="167.043" rx="6.502" ry="3.003" style="fill:none;stroke:rgb(254,0,182);stroke-opacity:0.99;stroke-width:2.87px;stroke-linejoin:round;"/>
        </g>
        <g id="path19" transform="matrix(0.998391,-0.056703,0.145382,0.989376,43.885729,40.709155)">
            <ellipse cx="41.292" cy="158.731" rx="3.439" ry="10.688" style="fill:none;stroke:rgb(254,0,182);stroke-opacity:0.99;stroke-width:2.88px;stroke-linejoin:round;"/>
        </g>
        <g id="path20" transform="matrix(0.906142,-0.422974,0.415225,0.909719,43.885729,40.709155)">
            <ellipse cx="93.963" cy="157.307" rx="13.405" ry="4.118" style="fill:none;stroke:rgb(254,0,182);stroke-opacity:0.99;stroke-width:2.87px;stroke-linejoin:round;"/>
        </g>
        <g id="path21" transform="matrix(0.9279,0.37283,-0.308245,0.951307,43.885729,40.709155)">
            <ellipse cx="104.163" cy="56.84" rx="4.668" ry="6.237" style="fill:none;stroke:rgb(254,0,182);stroke-opacity:0.99;stroke-width:2.88px;stroke-linejoin:round;"/>
        </g>
        <g id="path22" transform="matrix(0.70891,-0.705299,0.623349,0.781944,43.885729,40.709155)">
            <ellipse cx="23.68" cy="125.409" rx="5.933" ry="3.718" style="fill:none;stroke:rgb(254,0,182);stroke-opacity:0.99;stroke-width:2.88px;stroke-linejoin:round;"/>
        </g>
        <g id="path23" transform="matrix(0.96537,-0.260884,0.260884,0.96537,43.885729,40.709155)">
            <ellipse cx="118.683" cy="106.006" rx="10.752" ry="3.36" style="fill:none;stroke:rgb(254,0,182);stroke-opacity:0.99;stroke-width:2.87px;stroke-linejoin:round;"/>
        </g>
        <g id="path24" transform="matrix(0.96537,-0.260884,0.260884,0.96537,43.885729,40.709155)">
            <ellipse cx="137.275" cy="120.492" rx="11.424" ry="3.061" style="fill:none;stroke:rgb(254,0,182);stroke-opacity:0.99;stroke-width:2.87px;stroke-linejoin:round;"/>
        </g>
        <g id="path25" transform="matrix(0.995612,-0.093581,0.093581,0.995612,43.885729,40.709155)">
            <ellipse cx="74.669" cy="124.35" rx="3.435" ry="10.603" style="fill:none;stroke:rgb(254,0,182);stroke-opacity:0.99;stroke-width:2.87px;stroke-linejoin:round;"/>
        </g>
        <g id="path26" transform="matrix(0.96537,-0.260884,0.260884,0.96537,43.885729,40.709155)">
            <ellipse cx="70.147" cy="137.815" rx="2.987" ry="5.302" style="fill:none;stroke:rgb(254,0,182);stroke-opacity:0.99;stroke-width:2.87px;stroke-linejoin:round;"/>
        </g>
        <g id="path27" transform="matrix(0.96537,-0.260884,0.260884,0.96537,43.885729,40.709155)">
            <ellipse cx="110.618" cy="161.486" rx="7.019" ry="3.435" style="fill:none;stroke:rgb(254,0,182);stroke-opacity:0.99;stroke-width:2.87px;stroke-linejoin:round;"/>
        </g>
        <g id="path33" transform="matrix(0.96537,-0.260884,0.260884,0.96537,43.885729,40.709155)">
            <ellipse cx="168.263" cy="146.552" rx="2.688" ry="6.72" style="fill:none;stroke:rgb(254,0,182);stroke-opacity:0.99;stroke-width:2.24px;stroke-linejoin:round;"/>
        </g>
        <g id="path34" transform="matrix(0.96537,-0.260884,0.260884,0.96537,43.885729,40.709155)">
            <ellipse cx="144.22" cy="107.947" rx="5.227" ry="2.763" style="fill:none;stroke:rgb(254,0,182);stroke-opacity:0.99;stroke-width:2.87px;stroke-linejoin:round;"/>
        </g>
        <g id="path35" transform="matrix(0.991381,0.131011,-0.098571,0.99513,43.885729,40.709155)">
            <ellipse cx="95.176" cy="133.837" rx="3.011" ry="6.91" style="fill:none;stroke:rgb(254,0,182);stroke-opacity:0.99;stroke-width:2.87px;stroke-linejoin:round;"/>
        </g>
        <g id="path37" transform="matrix(0.907108,-0.420897,0.624143,0.78131,43.885729,40.709155)">
            <ellipse cx="83.137" cy="195.14" rx="10.008" ry="2.602" style="fill:none;stroke:rgb(254,0,182);stroke-opacity:0.99;stroke-width:2.92px;stroke-linecap:square;"/>
        </g>
        <g id="path38" transform="matrix(0.96537,-0.260884,0.260884,0.96537,43.885729,40.709155)">
            <ellipse cx="61.56" cy="178.361" rx="11.424" ry="3.733" style="fill:none;stroke:rgb(254,0,182);stroke-opacity:0.99;stroke-width:2.87px;stroke-linecap:square;"/>
        </g>
        <g id="path10" transform="matrix(0.999672,0.025613,-0.319234,0.947676,43.885729,40.709155)">
            <ellipse cx="166.925" cy="55.526" rx="11.505" ry="4.215" style="fill:none;stroke:rgb(254,0,182);stroke-opacity:0.99;stroke-width:2.94px;stroke-linecap:square;stroke-linejoin:round;"/>
        </g>
    </g>
    <g id="Vetor-Branco" transform="matrix(3.779528,0,0,3.779528,0.000019,0)">
        <g id="path40" transform="matrix(0.96537,-0.260884,0.260884,0.96537,43.885729,40.709155)">
            <path d="M6.048,170.703C6.085,169.971 5.194,157.897 15.052,134.459M47.227,97.306C48.103,97.626 54.858,92.26 80.972,85.282" style="fill:none;fill-rule:nonzero;stroke:rgb(254,0,182);stroke-opacity:0.99;stroke-width:2.87px;stroke-linejoin:round;"/>
        </g>
        <g id="path14" transform="matrix(0.887469,0.460867,0.112717,0.993627,43.885729,40.709155)">
            <ellipse cx="217.328" cy="-25.511" rx="8.728" ry="5.261" style="fill:none;stroke:rgb(254,0,182);stroke-opacity:0.99;stroke-width:3.15px;stroke-linejoin:round;"/>
        </g>
        <g id="path141" transform="matrix(0.96537,-0.260884,0.260884,0.96537,43.885729,40.709155)">
            <path d="M22.666,120.819L32.381,109.837" style="fill:none;fill-rule:nonzero;stroke:rgb(254,4,183);stroke-opacity:0.99;stroke-width:2.87px;"/>
        </g>
        <g id="path142" transform="matrix(0.96537,-0.260884,0.260884,0.96537,43.885729,40.709155)">
            <path d="M100.559,85.12C105.916,85.764 111.947,87.335 118.053,89.719" style="fill:rgb(251,4,183);fill-rule:nonzero;stroke:rgb(254,4,183);stroke-opacity:0.99;stroke-width:2.77px;"/>
        </g>
    </g>
    <g id="Vetor" transform="matrix(3.779528,0,0,3.779528,0.000019,0)">
        <g id="path16" transform="matrix(0.789605,-0.613616,0.740849,0.671671,43.885729,40.709155)">
            <ellipse cx="59.79" cy="185.151" rx="6.127" ry="3.528" style="fill:none;stroke:rgb(254,0,182);stroke-opacity:0.99;stroke-width:2.9px;stroke-linejoin:round;"/>
        </g>
        <g id="path5-8" transform="matrix(0.96537,-0.260884,0.260884,0.96537,43.885729,40.709155)">
            <path d="M138.04,98.789C144.909,103.353 152.259,109.135 156.867,114.182M168.737,131.166C176.057,145.488 175.832,158.105 175.929,162.546" style="fill:none;fill-rule:nonzero;stroke:rgb(254,0,182);stroke-opacity:0.99;stroke-width:2.87px;stroke-linejoin:round;"/>
        </g>
    </g>
</svg>
